# xmcd
#
# Track frame offsets:
#	150
#	37680
#	60088
#	90318
#	116858
#	141545
#	160808
#	215213
#	242458
#	267105
#	293548
#
# Disc length: 4699 seconds
#
# Revision: 0
# Processed by: cddbd v1.5.2PL0 Copyright (c) Steve Scherf et al.
# Submitted via: audiograbber 1.83.01
#
DISCID=9112590b
DTITLE=Dream Theater - Original Album Classics [CD 3) - Falling Into Infinity
DYEAR=1997
DGENRE=Progressive Metal
TTITLE0=New Millennium
TTITLE1=You Not Me
TTITLE2=Peruvian Skies
TTITLE3=Hollow Years
TTITLE4=Burning My Soul
TTITLE5=Hell's Kitchen
TTITLE6=Lines In The Sand
TTITLE7=Take Away My Pain
TTITLE8=Just Let Me Breathe
TTITLE9=Anna Lee
TTITLE10=Trial Of Tears: I - It's Raining, II - Deep In Heaven, III - The Waste
TTITLE10=land
EXTD=
EXTT0=
EXTT1=
EXTT2=
EXTT3=
EXTT4=
EXTT5=
EXTT6=
EXTT7=
EXTT8=
EXTT9=
EXTT10=
PLAYORDER=
